<svg width="32" height="32" viewBox="0 0 32 32" fill="none" xmlns="http://www.w3.org/2000/svg">
<path d="M15.9999 12C16.7333 12 17.3333 11.4 17.3333 10.6667V8H19.9999C20.7333 8 21.3333 7.4 21.3333 6.66667C21.3333 5.93333 20.7333 5.33333 19.9999 5.33333H17.3333V2.66667C17.3333 1.93333 16.7333 1.33333 15.9999 1.33333C15.2666 1.33333 14.6666 1.93333 14.6666 2.66667V5.33333H11.9999C11.2666 5.33333 10.6666 5.93333 10.6666 6.66667C10.6666 7.4 11.2666 8 11.9999 8H14.6666V10.6667C14.6666 11.4 15.2666 12 15.9999 12ZM9.33325 24C7.86659 24 6.67992 25.2 6.67992 26.6667C6.67992 28.1333 7.86659 29.3333 9.33325 29.3333C10.7999 29.3333 11.9999 28.1333 11.9999 26.6667C11.9999 25.2 10.7999 24 9.33325 24ZM22.6666 24C21.1999 24 20.0133 25.2 20.0133 26.6667C20.0133 28.1333 21.1999 29.3333 22.6666 29.3333C24.1333 29.3333 25.3333 28.1333 25.3333 26.6667C25.3333 25.2 24.1333 24 22.6666 24ZM10.7999 17.3333H20.7333C21.7333 17.3333 22.6133 16.7867 23.0666 15.96L27.5733 7.78667C27.9333 7.14667 27.6933 6.33333 27.0533 5.97333C26.7453 5.80481 26.3833 5.7649 26.0461 5.86232C25.7089 5.95974 25.4239 6.18657 25.2533 6.49333L20.7333 14.6667H11.3733L6.05325 3.42667C5.94609 3.19907 5.77632 3.00672 5.5638 2.87212C5.35127 2.73753 5.10481 2.66626 4.85325 2.66667H2.66659C1.93325 2.66667 1.33325 3.26667 1.33325 4C1.33325 4.73333 1.93325 5.33333 2.66659 5.33333H3.99992L8.79992 15.4533L6.99992 18.7067C6.02659 20.4933 7.30659 22.6667 9.33325 22.6667H23.9999C24.7333 22.6667 25.3333 22.0667 25.3333 21.3333C25.3333 20.6 24.7333 20 23.9999 20H9.33325L10.7999 17.3333Z" fill="white"/>
</svg>
