<svg width="55" height="57" viewBox="0 0 55 57" fill="none" xmlns="http://www.w3.org/2000/svg">
<path d="M30.4505 32H39.1534C40.8047 32 42.1883 31.361 43.2594 30.1321C44.3305 28.9524 45 27.3794 45 25.6098V6.39017C45 4.62058 44.3305 3.04762 43.2594 1.8679C42.1883 0.688172 40.7601 0 39.1534 0H30.4505V4.03072H39.1534C40.4031 4.03072 41.3403 5.06298 41.3403 6.39017V25.6098C41.3403 26.937 40.4031 28.0184 39.1534 28.0184H30.4505V32ZM13 12.1905V19.8587C13 20.7435 13.6695 21.4808 14.4728 21.4808H22.5955V27.5269C22.5955 28.0676 22.8187 28.51 23.265 28.7558C23.4435 28.8049 23.6667 28.8049 23.7559 28.8049C24.0683 28.8049 24.3361 28.7066 24.5593 28.4608L35.0474 16.9094C35.4491 16.467 35.4045 15.5822 35.0474 15.0906L24.5593 3.58833C24.2022 3.19508 23.7559 3.14593 23.265 3.29339C22.8187 3.53917 22.5955 3.93241 22.5955 4.47312V10.5684H14.4728C13.6695 10.5684 13 11.3057 13 12.1905Z" fill="#2C3E50"/>
<path d="M9.94824 51L8.34863 46.9131H3.19824L1.61621 51H0.104492L5.18457 38.0977H6.44141L11.4951 51H9.94824ZM7.88281 45.5684L6.38867 41.5869C6.19531 41.083 5.99609 40.4648 5.79102 39.7324C5.66211 40.2949 5.47754 40.9131 5.2373 41.5869L3.72559 45.5684H7.88281ZM19.5986 49.708H19.5195C18.8457 50.6865 17.8379 51.1758 16.4961 51.1758C15.2363 51.1758 14.2549 50.7451 13.5518 49.8838C12.8545 49.0225 12.5059 47.7979 12.5059 46.21C12.5059 44.6221 12.8574 43.3887 13.5605 42.5098C14.2637 41.6309 15.2422 41.1914 16.4961 41.1914C17.8027 41.1914 18.8047 41.666 19.502 42.6152H19.6162L19.5547 41.9209L19.5195 41.2441V37.3242H20.9785V51H19.792L19.5986 49.708ZM16.6807 49.9541C17.6768 49.9541 18.3975 49.6846 18.8428 49.1455C19.2939 48.6006 19.5195 47.7246 19.5195 46.5176V46.21C19.5195 44.8447 19.291 43.8721 18.834 43.292C18.3828 42.7061 17.6592 42.4131 16.6631 42.4131C15.8076 42.4131 15.1514 42.7471 14.6943 43.415C14.2432 44.0771 14.0176 45.0146 14.0176 46.2275C14.0176 47.458 14.2432 48.3867 14.6943 49.0137C15.1455 49.6406 15.8076 49.9541 16.6807 49.9541ZM36.3594 51V44.7334C36.3594 43.9658 36.1953 43.3916 35.8672 43.0107C35.5391 42.624 35.0293 42.4307 34.3379 42.4307C33.4297 42.4307 32.7588 42.6914 32.3252 43.2129C31.8916 43.7344 31.6748 44.5371 31.6748 45.6211V51H30.2158V44.7334C30.2158 43.9658 30.0518 43.3916 29.7236 43.0107C29.3955 42.624 28.8828 42.4307 28.1855 42.4307C27.2715 42.4307 26.6006 42.7061 26.1729 43.2568C25.751 43.8018 25.54 44.6982 25.54 45.9463V51H24.0811V41.3672H25.2676L25.5049 42.6855H25.5752C25.8506 42.2168 26.2373 41.8506 26.7354 41.5869C27.2393 41.3232 27.8018 41.1914 28.4229 41.1914C29.9287 41.1914 30.9131 41.7363 31.376 42.8262H31.4463C31.7334 42.3223 32.1494 41.9238 32.6943 41.6309C33.2393 41.3379 33.8604 41.1914 34.5576 41.1914C35.6475 41.1914 36.4619 41.4727 37.001 42.0352C37.5459 42.5918 37.8184 43.4854 37.8184 44.7158V51H36.3594ZM42.292 51H40.833V41.3672H42.292V51ZM40.71 38.7568C40.71 38.4229 40.792 38.1797 40.9561 38.0273C41.1201 37.8691 41.3252 37.79 41.5713 37.79C41.8057 37.79 42.0078 37.8691 42.1777 38.0273C42.3477 38.1855 42.4326 38.4287 42.4326 38.7568C42.4326 39.085 42.3477 39.3311 42.1777 39.4951C42.0078 39.6533 41.8057 39.7324 41.5713 39.7324C41.3252 39.7324 41.1201 39.6533 40.9561 39.4951C40.792 39.3311 40.71 39.085 40.71 38.7568ZM51.9775 51V44.7686C51.9775 43.9834 51.7988 43.3975 51.4414 43.0107C51.084 42.624 50.5244 42.4307 49.7627 42.4307C48.7549 42.4307 48.0166 42.7031 47.5479 43.248C47.0791 43.793 46.8447 44.6924 46.8447 45.9463V51H45.3857V41.3672H46.5723L46.8096 42.6855H46.8799C47.1787 42.2109 47.5977 41.8447 48.1367 41.5869C48.6758 41.3232 49.2764 41.1914 49.9385 41.1914C51.0986 41.1914 51.9717 41.4727 52.5576 42.0352C53.1436 42.5918 53.4365 43.4854 53.4365 44.7158V51H51.9775Z" fill="#2C3E50"/>
</svg>
