<svg width="48" height="48" viewBox="0 0 48 48" fill="none" xmlns="http://www.w3.org/2000/svg">
<circle cx="24" cy="24" r="23" fill="white" stroke="#2C3E50" stroke-width="2"/>
<path d="M28.4375 25.25C29.375 25.25 30.2 24.7375 30.625 23.9625L35.1 15.85C35.2053 15.6605 35.2594 15.4468 35.2568 15.2301C35.2542 15.0133 35.195 14.801 35.0852 14.6141C34.9753 14.4272 34.8186 14.2722 34.6304 14.1645C34.4423 14.0568 34.2293 14.0001 34.0125 14H15.5125L14.3375 11.5H10.25V14H12.75L17.25 23.4875L15.5625 26.5375C14.65 28.2125 15.85 30.25 17.75 30.25H32.75V27.75H17.75L19.125 25.25H28.4375ZM16.7 16.5H31.8875L28.4375 22.75H19.6625L16.7 16.5ZM17.75 31.5C16.375 31.5 15.2625 32.625 15.2625 34C15.2625 35.375 16.375 36.5 17.75 36.5C19.125 36.5 20.25 35.375 20.25 34C20.25 32.625 19.125 31.5 17.75 31.5ZM30.25 31.5C28.875 31.5 27.7625 32.625 27.7625 34C27.7625 35.375 28.875 36.5 30.25 36.5C31.625 36.5 32.75 35.375 32.75 34C32.75 32.625 31.625 31.5 30.25 31.5Z" fill="#2C3E50"/>
</svg>
