<svg width="72" height="72" viewBox="0 0 72 72" fill="none" xmlns="http://www.w3.org/2000/svg">
<path d="M36 4.5C18.6047 4.5 4.5 18.6047 4.5 36C4.5 53.3953 18.6047 67.5 36 67.5C53.3953 67.5 67.5 53.3953 67.5 36C67.5 18.6047 53.3953 4.5 36 4.5ZM36 62.1562C21.5578 62.1562 9.84375 50.4422 9.84375 36C9.84375 21.5578 21.5578 9.84375 36 9.84375C50.4422 9.84375 62.1562 21.5578 62.1562 36C62.1562 50.4422 50.4422 62.1562 36 62.1562Z" fill="white"/>
<path d="M36 9.84375C21.5578 9.84375 9.84375 21.5578 9.84375 36C9.84375 50.4422 21.5578 62.1562 36 62.1562C50.4422 62.1562 62.1562 50.4422 62.1562 36C62.1562 21.5578 50.4422 9.84375 36 9.84375ZM47.5383 36.4359L32.182 47.6086C32.0978 47.6691 31.9986 47.7052 31.8952 47.713C31.7919 47.7207 31.6883 47.6999 31.596 47.6526C31.5038 47.6054 31.4263 47.5336 31.3721 47.4452C31.318 47.3568 31.2892 47.2552 31.2891 47.1516V24.8203C31.2887 24.7164 31.3172 24.6145 31.3712 24.5258C31.4253 24.4371 31.5028 24.3651 31.5953 24.3177C31.6877 24.2704 31.7915 24.2496 31.8951 24.2577C31.9987 24.2657 32.098 24.3023 32.182 24.3633L47.5383 35.5289C47.6108 35.5802 47.67 35.6482 47.7109 35.7271C47.7517 35.806 47.773 35.8936 47.773 35.9824C47.773 36.0713 47.7517 36.1588 47.7109 36.2378C47.67 36.3167 47.6108 36.3846 47.5383 36.4359Z" fill="black" fill-opacity="0.1"/>
<path d="M47.5382 35.5289L32.182 24.3633C32.0979 24.3023 31.9986 24.2657 31.8951 24.2577C31.7915 24.2496 31.6877 24.2704 31.5953 24.3177C31.5028 24.3651 31.4252 24.4371 31.3712 24.5258C31.3171 24.6145 31.2887 24.7164 31.289 24.8203V47.1516C31.2892 47.2552 31.3179 47.3568 31.3721 47.4452C31.4263 47.5336 31.5037 47.6054 31.596 47.6526C31.6883 47.6999 31.7918 47.7207 31.8952 47.713C31.9986 47.7052 32.0978 47.6691 32.182 47.6086L47.5382 36.4359C47.6108 36.3846 47.67 36.3167 47.7108 36.2378C47.7517 36.1588 47.773 36.0713 47.773 35.9824C47.773 35.8936 47.7517 35.806 47.7108 35.7271C47.67 35.6482 47.6108 35.5802 47.5382 35.5289Z" fill="white"/>
</svg>
