<svg width="423" height="546" viewBox="0 0 423 546" fill="none" xmlns="http://www.w3.org/2000/svg">
<g filter="url(#filter0_f)">
<ellipse cx="211.5" cy="461" rx="151.5" ry="40" fill="#C4C4C4"/>
</g>
<g clip-path="url(#clip0)">
<path d="M223.624 51.9372C223.624 51.9372 224.579 82.1408 224.579 82.1519C224.619 83.449 212.041 87.8221 210.768 88.7226C204.437 93.1939 205.483 98.7973 211.708 104.215C215.8 107.416 220.548 109.923 225.704 111.607C229.4 113.086 233.234 114.292 237.163 115.213C247.408 117.376 258.214 116.135 267.457 111.735C273.273 108.937 284.504 101.484 285.205 95.0765C285.961 88.1371 273.976 87.8239 267.517 84.2217C260.838 80.4972 258.931 79.6689 258.931 79.6689L258.452 52.7618L223.624 51.9372Z" fill="#D8A87D"/>
<path d="M252.252 330.077C251.773 331.319 251.297 356.575 252.728 361.12C253.227 363.134 254.029 365.082 255.114 366.914C255.114 366.914 253.683 387.195 254.635 395.473C255.588 403.75 264.179 429.827 264.655 433.965C265.131 438.102 274.198 469.56 274.198 469.56L286.125 469.976C286.125 469.976 284.694 439.761 286.602 428.17C288.509 416.58 296.621 395.888 293.281 383.056C289.94 370.224 286.602 366.501 286.125 361.12C285.649 355.739 287.556 345.805 286.602 336.7C285.647 327.594 284.694 316.832 284.694 316.832L252.252 330.077Z" fill="#D8A87D"/>
<path d="M264.501 392.059C264.725 383.743 269.017 363.768 269.017 363.768C268.2 361.834 267.68 359.815 267.47 357.763C266.695 353.093 270.742 328.087 271.392 326.905L285.254 322.964C284.916 319.348 284.694 316.832 284.694 316.832L252.252 330.077C251.773 331.319 251.297 356.575 252.728 361.12C253.227 363.134 254.029 365.082 255.114 366.914C255.114 366.914 253.683 387.195 254.635 395.473C255.588 403.75 264.179 429.827 264.655 433.965C265.035 437.256 270.839 457.801 273.199 466.09C272.293 459.588 268.893 434.934 268.991 431.328C269.106 427.17 264.275 400.381 264.501 392.059ZM285.86 463.014C285.433 466.844 285.2 469.353 285.2 469.353L273.667 467.706L274.2 469.559L286.127 469.974C286.127 469.974 285.993 467.196 285.863 463.012L285.86 463.014Z" fill="#D09764"/>
<path d="M186.41 230.743C185.455 231.984 184.024 273.787 183.069 283.721C182.114 293.655 182.593 343.736 182.593 343.736C182.593 343.736 204.539 347.047 212.649 347.047H232.687C232.687 347.047 237.937 292.827 238.413 288.687C238.889 284.548 239.724 284.446 239.724 284.446L245.568 343.322C251.541 346.755 258.455 348.754 265.608 349.117C277.058 349.53 298.05 344.564 298.05 344.564C298.05 344.564 300.436 306.072 299.481 289.515C298.527 272.959 293.287 232.814 293.287 232.814L186.41 230.743Z" fill="#7B5555"/>
<g style="mix-blend-mode:multiply" opacity="0.3">
<path d="M267.148 311.56C265.759 308.392 264.089 305.31 262.976 302.062C261.886 298.531 261.128 294.928 260.712 291.291C259.705 284.388 258.699 277.486 257.692 270.585C257.203 267.237 256.577 263.635 253.847 261.224C251.598 259.232 248.52 258.185 246.29 256.143C244.18 260.59 243.77 266.355 242.691 271.152C242.035 274.08 241.378 277.01 240.95 279.969C240.508 283.028 240.31 286.11 240.186 289.191L245.558 343.319C251.53 346.752 258.444 348.751 265.597 349.113C267.106 349.157 268.617 349.134 270.123 349.043C270.64 347.781 271.008 346.477 271.221 345.151C273.216 333.837 271.813 322.267 267.148 311.56ZM236.862 278.661C235.322 277.331 233.528 276.241 231.561 275.44C230.256 281.092 230.504 287.485 229.639 293.309C229.199 296.284 228.752 299.264 228.507 302.258C228.312 304.602 229.316 308.725 228.393 310.815C232.642 301.167 235.835 291.194 237.93 281.027C238.053 280.621 238.06 280.196 237.949 279.787C237.72 279.329 237.343 278.938 236.864 278.661H236.862ZM201.641 279.939C198.845 286.136 196.184 292.38 193.454 298.601L184.391 301.234C184.233 302.553 184.076 303.874 183.919 305.195L193.353 302.679C196.803 295.773 200.672 289.031 204.945 282.482C208.41 277.197 204.719 273.122 201.643 279.937L201.641 279.939ZM278.825 302.903C285.741 301.814 292.637 300.628 299.513 299.346C299.529 300.307 299.542 301.267 299.554 302.227C292.262 303.248 285.056 304.683 277.981 306.524C280.935 305.749 269.395 275.077 272.291 272.344C275.621 269.194 276.616 283.147 276.847 284.9C277.643 290.89 278.303 296.891 278.827 302.903H278.825ZM285.474 346.035C286.209 346.123 286.956 346.073 287.667 345.891C288.251 345.652 288.748 345.28 289.107 344.815C289.465 344.35 289.67 343.809 289.701 343.25C289.744 342.133 289.551 341.018 289.133 339.961C287.014 333.29 285.114 326.57 283.432 319.799C283.908 322.022 285.807 346.054 285.476 346.035H285.474Z" fill="#7B5555"/>
</g>
<path d="M259.757 23.8664C259.757 37.0467 251.583 30.5872 240.668 30.5872C229.754 30.5872 220.232 37.0467 220.232 23.8664C220.232 10.6861 229.081 0 239.996 0C250.91 0 259.757 10.6843 259.757 23.8664Z" fill="#E8B06A"/>
<path d="M251.995 13.2396C251.995 20.0344 247.031 16.7046 240.404 16.7046C233.776 16.7046 227.996 20.04 227.996 13.2396C227.996 6.43912 233.368 0.93576 239.996 0.93576C246.623 0.93576 251.995 6.43726 251.995 13.2396Z" fill="#EEC592"/>
<path d="M239.996 56.6938C259.717 56.6938 275.704 46.0085 275.704 32.8274C275.704 19.6464 259.717 8.96103 239.996 8.96103C220.275 8.96103 204.287 19.6464 204.287 32.8274C204.287 46.0085 220.275 56.6938 239.996 56.6938Z" fill="#E8B06A"/>
<path d="M325.963 109.055C325.963 109.055 348.148 115.265 350.295 119.617C352.442 123.97 358.166 148.177 358.166 148.177L363.177 199.707C363.177 199.707 330.971 240.061 327.394 243.167C323.816 246.272 296.621 233.233 296.621 233.233L276.582 202.19L272.289 153.143L290.179 121.48L325.963 109.055Z" fill="black"/>
<g style="mix-blend-mode:multiply" opacity="0.6">
<path d="M200.72 242.952C200.72 242.952 224.098 247.091 242.704 248.746C261.31 250.401 290.414 247.091 290.414 247.091L281.83 100.569L261.325 86.4972C259.726 89.5789 257.098 92.1732 253.78 93.944C250.463 95.7149 246.608 96.5806 242.717 96.4292C238.72 96.5363 234.748 95.8459 231.107 94.4112C227.466 92.9764 224.253 90.8356 221.716 88.1538L200.72 104.71V242.952Z" fill="#90BCAA"/>
</g>
<path d="M200.72 238.616C200.72 238.616 224.098 242.754 242.704 244.41C261.31 246.067 290.414 242.754 290.414 242.754L281.826 96.2346L261.321 82.1519C259.722 85.2339 257.094 87.8284 253.776 89.5995C250.459 91.3707 246.604 92.2368 242.713 92.0858C238.717 92.1916 234.746 91.5003 231.107 90.0653C227.468 88.6302 224.256 86.4897 221.721 83.8085L200.72 100.365V238.616Z" fill="white"/>
<g style="mix-blend-mode:multiply" opacity="0.4">
<path d="M244.058 198.458C248.352 174.453 251.214 158.309 247.875 145.479C244.537 132.649 247.875 110.297 247.875 110.297L256.069 93.948L258.679 73.2484C260.601 80.4972 259.802 83.8104 259.802 83.8104L260.214 84.1346C262.161 87.3082 265.318 89.7969 269.145 91.176L280.794 100.365V231.019L295.105 230.743C295.801 231.647 296.749 254.09 297.582 270.041L267.91 280.823L251.214 282.902C251.214 282.902 239.765 222.463 244.058 198.458Z" fill="#90BCAA"/>
</g>
<path d="M309.512 263.446L274.196 276.27L257.498 278.34C257.498 278.34 246.047 217.911 250.34 193.905C254.633 169.9 257.498 153.757 254.157 140.927C250.816 128.097 254.157 105.744 254.157 105.744L258.034 94.1259L258.674 73.2484C262.36 79.3057 268.357 84.0637 275.64 86.7084C281.311 88.6763 304.932 97.5113 306.57 102.857C307.344 105.385 297.6 114.781 295.891 118.189C292.879 124.62 290.958 131.397 290.188 138.307C287.662 159.326 290.506 180.57 298.518 200.528C299.016 201.769 309.512 263.446 309.512 263.446Z" fill="#7CBC9B"/>
<g style="mix-blend-mode:multiply" opacity="0.4">
<path d="M237.458 198.458C233.165 174.453 230.303 158.31 233.641 145.479C236.98 132.649 233.641 110.297 233.641 110.297L229.769 97.9468L227.52 88.3261C226.96 83.8085 224.474 73.6153 224.474 73.6153L221.302 84.1328C219.354 87.306 216.197 89.7945 212.37 91.1741L200.72 100.365V231.019L186.41 230.743C185.713 231.647 184.765 254.09 183.932 270.041L213.604 280.823L230.303 282.893C230.303 282.893 241.754 222.463 237.458 198.458Z" fill="#90BCAA"/>
</g>
<path d="M174.485 263.446L209.789 276.276L226.488 278.346C226.488 278.346 237.939 217.916 233.643 193.911C229.348 169.905 226.488 153.762 229.827 140.932C233.165 128.102 229.827 105.75 229.827 105.75L225.956 93.3995L224.478 73.6208C221.196 79.5896 215.439 84.2641 208.356 86.7103C203.444 88.4169 192.409 91.969 189.94 96.1772C187.574 100.209 190.643 110.69 190.931 115.22C191.904 130.428 192.875 145.636 193.845 160.843C194.738 174.82 190.536 187.312 185.457 200.533C184.981 201.769 174.485 263.446 174.485 263.446Z" fill="#7CBC9B"/>
<path d="M233.643 193.905C229.35 169.898 226.488 153.757 229.827 140.927C233.165 128.097 229.827 105.744 229.827 105.744L225.956 93.394L224.478 73.6134C224.069 74.4146 223.595 75.1893 223.058 75.9315L224.286 92.36L228.156 104.71C228.156 104.71 231.497 127.061 228.156 139.891C224.816 152.721 227.68 168.864 231.973 192.869C236.266 216.875 224.818 277.306 224.818 277.306L208.119 275.236L174.553 263.036L174.483 263.44L209.789 276.27L226.488 278.34C226.488 278.34 237.939 217.911 233.643 193.905Z" fill="#A7D2BC"/>
<path d="M216.795 36.7094C214.098 37.2653 212.902 41.3604 214.125 45.8631C215.349 50.3659 218.528 53.5697 221.225 53.0175C223.923 52.4653 225.121 48.3684 223.897 43.8656C222.673 39.3629 219.495 36.1572 216.795 36.7094ZM266.122 36.6409C263.401 36.1776 260.355 39.4833 259.335 44.0231C258.314 48.5629 259.681 52.6191 262.402 53.0824C265.123 53.5456 268.169 50.2417 269.187 45.7019C270.206 41.1621 268.844 37.106 266.122 36.6409Z" fill="#DBAF88"/>
<path d="M265.597 38.9645C265.597 55.7655 255.985 73.4614 242.956 73.4614C229.927 73.4614 217.771 53.2325 217.771 36.4315C217.771 19.6305 229.912 12.6169 242.956 12.6169C256 12.6169 265.597 22.1635 265.597 38.9645Z" fill="#E1BC9B"/>
<path d="M286.125 469.976C286.125 469.976 285.425 455.194 285.658 442.344C283.141 442.679 280.598 442.839 278.052 442.822C274.218 442.812 270.389 442.599 266.586 442.183C269.382 452.847 274.198 469.56 274.198 469.56L286.125 469.976Z" fill="white"/>
<path d="M300.133 479.761C300.289 478.41 300.109 477.045 299.605 475.759C299.1 474.473 298.283 473.296 297.209 472.308C294.519 469.534 292.158 466.532 290.16 463.347L285.888 448.866L268.235 449.074C267.97 451.929 267.438 455.159 267.551 455.976C267.81 457.82 269.873 464.77 269.185 468.706C268.498 472.642 271.592 480.096 272.453 481.52C273.314 482.943 276.58 485.624 288.184 485.205C299.789 484.786 299.96 480.682 300.133 479.761Z" fill="#7B5555"/>
<path d="M293.191 484.377C281.586 484.796 278.319 482.116 277.46 480.693C276.601 479.27 273.506 471.815 274.194 467.878C274.882 463.94 272.819 456.992 272.56 455.15C272.455 454.409 272.887 451.659 273.165 449.015L268.233 449.072C267.968 451.929 267.436 455.159 267.549 455.976C267.808 457.82 269.871 464.77 269.183 468.706C268.495 472.642 271.59 480.096 272.451 481.52C273.312 482.943 276.578 485.624 288.182 485.205C290.508 485.167 292.816 484.852 295.043 484.269C294.458 484.321 293.847 484.353 293.191 484.377Z" fill="#6B4141"/>
<path d="M287.747 480.032C277.691 480.339 272.972 478.964 270.777 477.651C271.228 478.973 271.788 480.266 272.451 481.52C273.306 482.944 276.578 485.624 288.182 485.205C299.787 484.786 299.96 480.682 300.143 479.761C300.245 478.948 300.213 478.128 300.049 477.323C298.332 478.577 294.898 479.811 287.747 480.032Z" fill="#F4E6DA"/>
<g style="mix-blend-mode:multiply">
<path d="M258.798 72.2515L258.632 62.8476C256.421 67.2354 253.632 71.4436 250.844 71.9995C246.851 72.6425 242.764 72.7219 238.742 72.2348C233.449 71.6196 227.022 62.0638 223.773 56.6475C223.855 59.2417 223.964 62.6363 224.072 66.0977C225.585 69.3914 227.943 72.3427 230.967 74.727C233.934 76.9361 237.325 78.6765 240.985 79.8691C242.207 80.2853 243.514 80.4796 244.826 80.4401C246.138 80.4006 247.426 80.128 248.612 79.6393C251.292 78.5463 253.752 77.0853 255.896 75.3126C256.988 74.3866 257.962 73.3601 258.798 72.2515Z" fill="#E1BC9B"/>
</g>
<path d="M269.284 185.409C269.96 184.812 270.428 184.061 270.636 183.243C279.963 157.318 270.661 127.808 283.308 102.978C281.208 102.622 279.061 102.524 276.93 102.687C275.161 103.178 273.623 104.153 272.545 105.466C269.679 108.488 268.756 112.889 267.966 116.623C263.16 139.344 259.173 162.181 256.004 185.133C259.3 185.869 262.695 186.212 266.097 186.154C267.226 186.226 268.349 185.964 269.284 185.409ZM289.825 256.577C285.98 237.363 281.352 218.284 275.941 199.34C275.935 198.974 275.832 198.613 275.639 198.287C275.446 197.961 275.168 197.678 274.828 197.461C274.488 197.243 274.095 197.097 273.678 197.034C273.262 196.97 272.835 196.991 272.43 197.094C269.899 197.207 265.531 196.585 264.264 198.423C263.249 199.905 265.306 206.081 265.558 207.873C266.471 214.351 267.383 220.828 268.292 227.305C270.117 240.259 271.939 253.212 273.76 266.166C278.474 265.562 283.032 264.261 287.238 262.319C288.046 261.999 288.762 261.528 289.336 260.941C289.748 260.278 290.004 259.551 290.089 258.802C290.174 258.053 290.087 257.296 289.831 256.577H289.825ZM297.783 255.317C300.028 255.283 300.69 252.66 300.598 250.714C300.043 239.146 297.268 227.756 294.502 216.434C293.862 213.777 292.138 198.886 288.949 198.499C283.289 197.815 287.454 211.953 287.787 213.647C288.524 217.481 295.419 255.354 297.79 255.317H297.783ZM272.257 85.2724C273.418 85.9208 274.643 86.4789 275.918 86.9401C273.406 93.8591 270.693 102.01 268.181 108.929C266.819 107.818 256.329 99.8683 256.814 98.0839C258.213 92.9437 266.212 102.146 267.306 102.878C268.002 101.028 273.538 86.3823 272.257 85.2724ZM217.193 166.948L223.577 166.967C224.401 158.398 220.362 150.014 220.102 141.42C219.888 134.297 222.693 128.415 226.155 122.189C217.242 119.365 219.343 135.19 219.083 139.02L217.193 166.948ZM198.74 265.753C204.393 268.365 210.416 270.321 216.656 271.571C220.821 251.981 224.151 232.249 226.089 212.4C226.77 208.529 226.484 204.576 225.249 200.809C224.363 198.677 222.105 195.503 219.384 194.821C214.732 193.653 215.909 196.57 215.668 200.044C215.113 207.45 213.997 214.816 212.327 222.095C208.706 236.849 204.17 251.422 198.74 265.753Z" fill="#4BA376"/>
<g style="mix-blend-mode:multiply">
<path d="M230.254 16.3192C225.339 18.5235 221.379 22.0506 218.97 26.3717C218.137 29.1255 217.731 31.9633 217.763 34.8101C217.912 42.5062 220.001 50.0807 223.884 57.0014C222.842 51.726 222.119 46.4069 221.719 41.0658C221.708 37.1687 223.392 33.4115 226.435 30.5446L223.291 35.9997L230.702 29.1808L226.217 34.8305L238.569 28.0115L232.729 32.2975C232.729 32.2975 242.837 28.0115 250.244 24.7003C257.651 21.389 263.045 31.5192 263.045 31.5192C264.292 35.1251 263.658 45.3981 262.989 52.7451C264.709 47.7481 265.589 42.5619 265.601 37.3469C265.647 33.6112 265.087 29.8885 263.937 26.2883C262.627 24.4599 261.205 22.6939 259.676 20.998C254.732 15.5391 243.727 10.4731 230.254 16.3192Z" fill="#E1BC9B"/>
</g>
<path d="M323.109 115.885C323.109 115.885 303.785 87.3255 289.472 103.969C285.88 108.147 281.601 140.139 281.601 140.139L283.033 166.57L271.582 168.657C271.582 168.657 267.289 141.529 268.004 133.183C268.72 124.837 277.306 102.577 277.306 102.577L288.791 95.5768C290.696 94.4161 292.949 93.7628 295.276 93.697C297.602 93.6312 299.901 94.1557 301.888 95.2062L331.695 110.923L323.109 115.885Z" fill="black"/>
<g style="mix-blend-mode:multiply">
<path d="M295.555 130.972C295.555 130.972 285.028 145.585 284.427 154.718C283.985 159.602 284.288 164.516 285.329 169.331C285.329 169.331 277.212 175.594 271.793 175.594C266.374 175.594 250.434 178.724 250.434 178.724C250.434 178.724 226.971 175.594 223.062 176.637C219.153 177.681 213.867 174.136 213.867 174.136C209.818 173.003 205.534 172.651 201.312 173.106C198.941 173.212 196.647 173.873 194.674 175.02C192.701 176.166 191.122 177.754 190.105 179.615L188.43 197.009C188.43 197.009 194.447 200.923 197.153 200.402C199.86 199.881 205.575 197.27 206.479 197.532C207.382 197.793 215.373 193.058 215.373 193.058C215.373 193.058 224.557 194.911 232.084 196.47C239.611 198.028 268.481 202.992 281.115 201.949C293.749 200.906 296.455 201.949 299.763 198.036C303.072 194.122 315.084 175.531 316.889 170.313C318.694 165.095 321.182 141.753 321.182 141.753L295.555 130.972Z" fill="#E1BC9B"/>
</g>
<path d="M262.235 30.0035C262.235 30.0035 256.844 19.8714 249.434 23.1845C242.025 26.4976 231.92 30.7817 231.92 30.7817L237.757 26.4958L225.405 33.3148L229.891 27.665L222.481 34.484L225.625 29.0288C222.581 31.8953 220.897 35.6528 220.909 39.55C221.386 45.4278 222.21 51.2804 223.378 57.0848C221.576 54.1527 220.075 51.0883 218.893 47.9274C217.545 43.836 214.407 43.0559 214.177 39.1591C213.946 35.2622 215.973 20.6515 229.448 14.8072C242.924 8.96287 253.92 14.0345 258.86 19.4822C263.801 24.93 270.089 34.0949 268.292 38.9645C266.496 43.8341 263.352 50.453 263.126 52.9934C262.788 55.1215 262.186 57.2115 261.329 59.2269C261.329 59.2269 264.249 35.8478 262.235 30.0035Z" fill="black"/>
<path d="M294.607 124.35C294.607 124.35 284.079 138.963 283.477 148.096C283.034 152.98 283.337 157.893 284.378 162.708C284.378 162.708 276.262 168.972 270.843 168.972C265.424 168.972 249.484 172.103 249.484 172.103C249.484 172.103 226.023 168.972 222.112 170.015C218.201 171.058 212.927 167.513 212.927 167.513C208.878 166.381 204.592 166.03 200.37 166.485C197.999 166.591 195.705 167.252 193.732 168.398C191.759 169.544 190.181 171.133 189.165 172.994L187.488 190.386C187.488 190.386 193.505 194.3 196.211 193.779C198.918 193.259 204.633 190.648 205.537 190.909C206.44 191.17 214.431 186.436 214.431 186.436C214.431 186.436 223.615 188.289 231.144 189.847C238.674 191.406 267.538 196.37 280.173 195.327C292.807 194.283 295.513 195.327 298.821 191.413C302.13 187.5 314.142 168.909 315.947 163.691C317.752 158.473 320.242 135.131 320.242 135.131L294.607 124.35Z" fill="#D8A87D"/>
<path d="M292.804 166.381C292.804 166.381 283.712 152.94 283.821 145.802C283.654 146.56 283.539 147.326 283.477 148.096C283.462 152.978 283.763 157.856 284.378 162.708C288.272 160.587 292.804 166.381 292.804 166.381ZM320.089 135.066C319.234 142.305 308.6 138.155 307.356 141.751C305.552 146.971 302.604 181.909 299.293 185.823C295.983 189.736 293.279 188.693 280.645 189.738C268.011 190.783 239.137 185.823 231.617 184.257C227.674 183.436 223.724 182.854 219.813 181.994C219.434 181.931 219.071 181.805 218.745 181.624C218.519 181.466 218.324 181.279 218.167 181.068C217.206 179.895 216.523 178.57 216.157 177.167C216.143 177.068 216.094 176.974 216.018 176.899C215.828 176.752 215.522 176.899 215.377 177.075C215.104 177.47 214.957 177.922 214.95 178.383C214.788 179.763 215.01 180.712 213.732 181.533C212.846 182.105 211.868 182.598 210.932 183.11C210.042 183.595 207.184 185.645 206.02 185.313C204.817 184.966 202.277 186.369 201.218 186.753C200.11 187.155 197.006 188.932 196.06 187.933C195.654 187.384 195.484 186.728 195.579 186.08C195.729 180.271 197.119 174.54 197.549 168.742C197.605 168.512 197.599 168.274 197.531 168.046C197.463 167.818 197.335 167.607 197.158 167.43C196.609 167.037 195.791 167.348 195.188 167.678C192.928 168.733 191.066 170.331 189.827 172.281C189.189 173.707 188.842 175.218 188.8 176.747C188.373 181.294 187.938 185.84 187.495 190.385C187.495 190.385 193.512 194.298 196.218 193.777C198.924 193.257 204.64 190.646 205.543 190.907C206.447 191.168 214.437 186.434 214.437 186.434C214.437 186.434 223.622 188.287 231.151 189.845C238.68 191.404 267.545 196.368 280.179 195.325C292.813 194.281 295.519 195.325 298.828 191.411C302.136 187.498 314.149 168.907 315.954 163.689C317.758 158.471 320.249 135.129 320.249 135.129L320.089 135.066Z" fill="#D39D6C"/>
<path d="M221.492 47.3974C221.492 47.3974 219.865 60.6388 230.788 69.1626C233.753 71.372 237.143 73.1119 240.803 74.3027C242.025 74.7196 243.333 74.9144 244.645 74.8752C245.958 74.836 247.247 74.5636 248.433 74.0748C251.113 72.9814 253.572 71.5204 255.716 69.7481C265.744 61.3448 262.854 46.6933 262.854 46.6933C262.854 46.6933 256.735 65.2231 250.663 66.4368C246.669 67.079 242.583 67.1584 238.56 66.6721C231.155 65.8105 221.492 47.3974 221.492 47.3974Z" fill="black"/>
<path d="M151.577 487.529C151.577 489.006 151.071 490.451 150.125 491.679C149.178 492.907 147.833 493.865 146.259 494.43C144.685 494.995 142.954 495.143 141.284 494.854C139.613 494.566 138.079 493.854 136.875 492.809C135.67 491.764 134.85 490.433 134.518 488.984C134.186 487.535 134.357 486.032 135.009 484.667C135.661 483.302 136.764 482.136 138.181 481.315C139.597 480.494 141.262 480.056 142.965 480.056C144.096 480.056 145.216 480.249 146.261 480.625C147.306 481 148.256 481.551 149.055 482.245C149.855 482.939 150.489 483.762 150.922 484.669C151.355 485.576 151.577 486.547 151.577 487.529Z" fill="#363636"/>
<path d="M247.023 487.529C247.022 489.006 246.517 490.451 245.57 491.679C244.624 492.907 243.279 493.865 241.705 494.43C240.131 494.995 238.4 495.143 236.729 494.854C235.059 494.566 233.525 493.854 232.32 492.809C231.116 491.764 230.296 490.433 229.964 488.984C229.632 487.535 229.803 486.032 230.455 484.667C231.106 483.302 232.21 482.136 233.626 481.315C235.043 480.494 236.708 480.056 238.411 480.056C239.542 480.056 240.662 480.249 241.707 480.625C242.752 481 243.702 481.551 244.501 482.245C245.301 482.939 245.935 483.762 246.368 484.669C246.801 485.576 247.023 486.547 247.023 487.529Z" fill="#363636"/>
<path d="M153.993 315.589C159.23 313.186 164.898 311.569 170.758 310.806C183.361 309.741 196.055 309.775 208.651 310.906C216.917 311.903 227.597 317.082 227.597 317.082L217.838 317.282C214.787 315.486 211.28 314.358 207.617 313.993C200.383 312.898 177.302 312.6 171.676 313.695C166.05 314.79 163.867 315.389 163.867 315.389L153.993 315.589Z" fill="#363636"/>
<path d="M165.836 231.441V318.125H171.294V236.135C171.293 235.243 171.496 234.36 171.889 233.536C172.282 232.712 172.859 231.964 173.585 231.333C174.312 230.703 175.175 230.203 176.125 229.862C177.074 229.521 178.092 229.345 179.12 229.345H202.468C203.495 229.345 204.513 229.521 205.463 229.862C206.413 230.203 207.276 230.703 208.003 231.333C208.73 231.964 209.306 232.712 209.7 233.536C210.093 234.36 210.296 235.243 210.296 236.135V318.125H215.753V231.441C215.753 228.787 214.538 226.242 212.375 224.366C210.212 222.489 207.278 221.435 204.219 221.435H177.377C175.862 221.434 174.361 221.693 172.961 222.195C171.561 222.698 170.289 223.435 169.217 224.364C168.145 225.293 167.295 226.396 166.715 227.611C166.135 228.825 165.836 230.127 165.836 231.441Z" fill="url(#paint0_linear)"/>
<path d="M230.869 315.177H150.718C135.962 315.177 124 325.555 124 338.356V460.868C124 473.669 135.962 484.047 150.718 484.047H230.869C245.625 484.047 257.587 473.669 257.587 460.868V338.356C257.587 325.555 245.625 315.177 230.869 315.177Z" fill="#614423"/>
<g style="mix-blend-mode:soft-light">
<path d="M212.75 321.52H168.84C159.237 321.52 151.453 328.273 151.453 336.603V427.853C151.453 436.184 159.237 442.937 168.84 442.937H212.75C222.352 442.937 230.136 436.184 230.136 427.853V336.603C230.136 328.273 222.352 321.52 212.75 321.52Z" fill="#A99A88"/>
</g>
<path d="M186.98 484.047H189.242V315.177H186.98V484.047ZM170.879 484.047H173.139V315.177H170.879V484.047ZM160.144 484.047H162.404V315.177H160.138L160.144 484.047ZM176.247 484.047H178.507V315.177H176.247V484.047ZM181.614 484.047H183.874V315.177H181.614V484.047ZM154.777 484.047H157.036V315.177H154.777V484.047ZM165.512 484.047H167.772V315.177H165.512V484.047ZM149.409 315.24V483.995C149.836 484.014 150.276 484.053 150.718 484.053H151.669V315.177H150.718C150.276 315.177 149.845 315.216 149.409 315.235V315.24ZM138.674 481.542C139.409 481.865 140.162 482.159 140.934 482.424V316.812C140.16 317.076 139.407 317.371 138.674 317.696V481.542ZM251.391 323.523V475.709C252.221 474.834 252.976 473.908 253.651 472.938V326.293C252.977 325.322 252.221 324.395 251.391 323.52V323.523ZM144.041 483.291C144.782 483.458 145.535 483.597 146.301 483.708V315.515C145.534 315.624 144.783 315.765 144.041 315.93V483.291ZM133.306 478.429C134.027 478.972 134.782 479.481 135.566 479.954V319.274C134.782 319.747 134.027 320.256 133.306 320.799V478.429ZM127.939 472.94C128.613 473.91 129.368 474.835 130.198 475.709V323.52C129.368 324.394 128.613 325.32 127.939 326.29V472.94ZM224.553 484.058H226.813V315.177H224.553V484.058ZM192.347 484.058H194.609V315.177H192.347V484.058ZM229.921 315.189V484.058H230.871C231.313 484.058 231.745 484.019 232.18 484.001V315.235C231.753 315.216 231.313 315.177 230.871 315.177L229.921 315.189ZM240.656 482.431C241.429 482.168 242.181 481.875 242.916 481.549V317.686C242.181 317.363 241.427 317.068 240.656 316.802V482.431ZM246.023 479.961C246.808 479.488 247.562 478.979 248.283 478.436V320.799C247.562 320.256 246.808 319.747 246.023 319.274V479.961ZM235.288 483.715C236.053 483.604 236.806 483.465 237.548 483.298V315.937C236.807 315.77 236.053 315.63 235.288 315.52V483.715ZM219.185 484.058H221.439V315.177H219.179L219.185 484.058ZM197.715 484.058H199.975V315.177H197.715V484.058ZM203.083 484.058H205.342V315.177H203.083V484.058ZM208.45 484.058H210.71V315.177H208.45V484.058ZM213.818 484.058H216.078V315.177H213.818V484.058Z" fill="#4F2F0A"/>
<g style="mix-blend-mode:soft-light">
<path d="M230.162 316.006H151.425C144.55 315.932 137.923 318.231 133.001 322.397C128.08 326.562 125.267 332.253 125.181 338.217V354.083C125.267 348.118 128.08 342.428 133.002 338.263C137.923 334.097 144.55 331.798 151.425 331.871H230.162C237.037 331.798 243.665 334.097 248.587 338.262C253.509 342.427 256.322 348.118 256.408 354.083V338.217C256.323 332.253 253.509 326.562 248.587 322.396C243.665 318.231 237.037 315.932 230.162 316.006Z" fill="#A99A88"/>
</g>
<g style="mix-blend-mode:multiply">
<path d="M230.162 482.995H151.425C144.551 483.067 137.925 480.769 133.004 476.605C128.083 472.441 125.269 466.752 125.181 460.788V444.923C125.267 450.887 128.08 456.578 133.002 460.743C137.923 464.908 144.55 467.208 151.425 467.135H230.162C237.037 467.208 243.665 464.909 248.587 460.744C253.509 456.579 256.322 450.888 256.408 444.923V460.788C256.32 466.752 253.506 472.441 248.584 476.606C243.663 480.77 237.036 483.068 230.162 482.995Z" fill="#A99A88"/>
</g>
<path d="M278.013 143.202C280.1 138.292 316.648 162.382 319.164 163.331C325.185 153.477 323.564 140.011 323.863 129.195C323.991 124.535 324.521 119.471 322.748 114.979C320.727 109.856 315.571 107.415 311.793 103.458C308.401 99.9072 301.224 96.9054 297.341 100.054C295.88 101.238 295.12 105.394 294.137 106.91C286.988 117.987 283.094 131.241 278.013 143.202Z" fill="#7CBC9B"/>
<path d="M205.248 98.486C204.414 98.2421 203.561 98.0496 202.696 97.9097C199.871 97.4734 196.97 97.5668 194.19 98.1837C191.409 98.8005 188.813 99.9265 186.576 101.486C180.446 105.802 172.28 124.861 169.952 131.406C163.278 150.158 158.378 152.658 155.642 172.383C154.755 177.714 155.236 183.15 157.051 188.301C158.866 193.452 161.969 198.192 166.14 202.183C170.149 206.163 174.626 209.77 179.498 212.945L179.021 223.292C181.454 227.963 184.163 232.522 187.138 236.95C189.524 239.848 201.897 238.594 205.744 237.365C209.591 236.137 210.037 231.991 209.085 227.844L208.13 223.705L211.947 226.603C212.737 225.911 213.289 225.042 213.542 224.092C213.795 223.143 213.738 222.152 213.378 221.229C211.947 218.331 195.724 206.33 195.724 206.33C195.724 206.33 191.908 199.707 188.569 197.224C185.231 194.741 187.529 190.453 183.321 183.141C182.127 181.072 187.187 173.424 192.147 168.655C203.183 158.046 215.945 138.029 218.391 122.595C219.262 117.103 219.213 111.231 216.161 106.359C213.783 102.646 209.891 99.8377 205.248 98.486Z" fill="#D8A87D"/>
<path d="M208.39 224.883C208.237 225.043 208.119 225.154 208.119 225.154L204.302 222.258L205.257 226.395C206.212 230.535 205.789 227.733 201.942 228.962C200.233 229.507 190.195 230.176 186.267 231.869C183.789 232.938 189.043 237.291 187.223 237.035C189.787 239.815 201.929 238.581 205.733 237.363C209.578 236.135 210.027 231.99 209.074 227.844L208.39 224.883ZM218.38 122.599C219.252 117.107 219.203 111.234 216.15 106.363C213.777 102.652 209.892 99.8437 205.257 98.4878C205.152 98.4582 205.043 98.4452 204.939 98.4174C208.049 99.9502 210.611 102.198 212.342 104.914C215.394 109.785 215.443 115.661 214.572 121.15C212.126 136.583 199.834 145.012 188.806 155.615C183.844 160.385 178.308 179.621 179.502 181.69C183.71 188.993 181.409 193.281 184.75 195.773C187.093 197.579 189.097 199.691 190.69 202.032C190.841 202.23 190.967 202.441 191.066 202.662C191.153 202.902 191.195 203.152 191.192 203.404C191.192 203.988 191.051 204.566 190.779 205.101C190.506 205.635 190.108 206.114 189.609 206.507C188.71 207.208 187.437 207.691 187.085 208.694C189.547 207.795 193.294 206.576 195.859 207.855C197.885 209.137 199.752 210.599 201.427 212.218C204.02 214.307 208.121 216.851 209.559 219.769C209.894 220.51 210.009 221.312 209.893 222.101C209.778 222.89 209.436 223.642 208.899 224.287L211.945 226.599C212.735 225.907 213.287 225.038 213.54 224.089C213.793 223.14 213.736 222.148 213.376 221.226C211.945 218.328 195.722 206.326 195.722 206.326C195.722 206.326 191.908 199.703 188.567 197.22C185.226 194.737 187.527 190.449 183.319 183.138C182.125 181.068 187.185 173.421 192.145 168.651C203.172 158.048 215.935 138.03 218.38 122.597V122.599Z" fill="#D39D6C"/>
<path d="M201.201 89.6028C201.201 89.6028 182.424 98.0728 178.054 103.163C173.684 108.253 155.597 160.105 155.597 160.105L195.539 165.414L221.652 131.767L218.829 96.4403L201.201 89.6028Z" fill="#7CBC9B"/>
<path d="M318.696 257.702C319.021 258.365 319.512 259.13 320.341 259.162C320.772 259.14 321.187 259.012 321.537 258.791L326.537 256.23C327.298 255.893 327.979 255.437 328.547 254.883C330.027 253.245 329.188 250.873 328.276 248.944L321.785 235.119C321.765 234.987 321.715 234.859 321.637 234.743C321.56 234.627 321.457 234.526 321.334 234.445C321.211 234.365 321.071 234.306 320.922 234.272C320.773 234.239 320.617 234.231 320.465 234.25C312.551 234.297 308.914 234.045 311.671 241.408C313.734 246.93 316.076 252.361 318.696 257.702Z" fill="black"/>
<path d="M233.483 54.5518H253.021C252.548 56.3091 251.372 57.8639 249.702 58.9397C248.032 60.0156 245.976 60.5428 243.9 60.4276C241.689 60.4507 239.519 59.905 237.665 58.8592C235.811 57.8134 234.356 56.3145 233.483 54.5518Z" fill="white"/>
<path d="M241.117 35.4586C241.117 35.4586 239.996 48.3165 240.444 50.0694C240.893 51.8223 246.51 51.6556 247.303 50.2251C247.956 49.0466 245.594 35.5198 245.594 35.5198L241.117 35.4586Z" fill="#E8CBB2"/>
<path d="M236.401 38.8644C236.401 39.2309 236.276 39.5892 236.041 39.8939C235.806 40.1986 235.473 40.4361 235.082 40.5764C234.692 40.7166 234.263 40.7533 233.848 40.6818C233.434 40.6103 233.053 40.4338 232.755 40.1747C232.456 39.9155 232.253 39.5854 232.17 39.2259C232.088 38.8665 232.13 38.4939 232.292 38.1553C232.453 37.8167 232.727 37.5273 233.078 37.3237C233.43 37.1201 233.843 37.0115 234.265 37.0115C234.832 37.0115 235.375 37.2067 235.775 37.5542C236.176 37.9017 236.401 38.373 236.401 38.8644Z" fill="black"/>
<path d="M234.722 38.114C234.722 38.2723 234.668 38.4271 234.567 38.5587C234.465 38.6903 234.321 38.7929 234.153 38.8535C233.984 38.9141 233.798 38.93 233.619 38.8991C233.44 38.8682 233.276 38.7919 233.147 38.68C233.018 38.568 232.93 38.4254 232.894 38.2701C232.859 38.1149 232.877 37.9539 232.947 37.8076C233.017 37.6614 233.135 37.5363 233.287 37.4484C233.439 37.3604 233.617 37.3135 233.799 37.3135C233.921 37.3132 234.041 37.3338 234.153 37.3739C234.265 37.4141 234.367 37.473 234.452 37.5474C234.538 37.6218 234.606 37.7101 234.652 37.8073C234.699 37.9046 234.722 38.0088 234.722 38.114Z" fill="white"/>
<path d="M255.379 38.8644C255.379 39.2309 255.253 39.5892 255.019 39.8939C254.784 40.1986 254.45 40.4361 254.06 40.5764C253.67 40.7166 253.24 40.7533 252.826 40.6818C252.412 40.6103 252.031 40.4338 251.732 40.1747C251.434 39.9155 251.23 39.5854 251.148 39.2259C251.065 38.8665 251.108 38.4939 251.269 38.1553C251.431 37.8167 251.705 37.5273 252.056 37.3237C252.407 37.1201 252.82 37.0115 253.243 37.0115C253.809 37.0115 254.353 37.2067 254.753 37.5542C255.154 37.9017 255.379 38.373 255.379 38.8644Z" fill="black"/>
<path d="M252.856 38.8237C253.365 38.8237 253.777 38.4661 253.777 38.025C253.777 37.584 253.365 37.2264 252.856 37.2264C252.348 37.2264 251.936 37.584 251.936 38.025C251.936 38.4661 252.348 38.8237 252.856 38.8237Z" fill="white"/>
<path d="M228.389 34.2968C228.164 34.3984 227.968 34.5406 227.812 34.7139C227.656 34.8871 227.545 35.0874 227.486 35.3011C227.474 35.3408 227.474 35.3822 227.483 35.4222C227.493 35.4622 227.513 35.4997 227.542 35.5321C227.57 35.5645 227.607 35.5909 227.649 35.6093C227.691 35.6277 227.738 35.6376 227.785 35.6384C228.203 35.6684 228.624 35.5986 229 35.4364C231.09 34.7613 233.346 34.566 235.549 34.8694C236.824 35.171 238.148 35.2826 239.466 35.1992C239.568 35.1889 239.667 35.1606 239.757 35.1158C240.904 34.4784 238.663 33.2517 238.095 33.0979C236.474 32.6724 234.766 32.5592 233.089 32.7663C231.413 32.9734 229.809 33.4957 228.389 34.2968Z" fill="black"/>
<path d="M259.245 34.2968C259.469 34.3984 259.666 34.5406 259.822 34.7139C259.978 34.8872 260.089 35.0874 260.148 35.3012C260.162 35.3735 260.148 35.4479 260.108 35.5124C260.076 35.5471 260.037 35.5761 259.993 35.5977C259.949 35.6194 259.9 35.6332 259.849 35.6384C259.43 35.6686 259.01 35.5988 258.634 35.4364C256.544 34.7614 254.288 34.5661 252.085 34.8694C250.81 35.1711 249.484 35.2827 248.166 35.1992C248.064 35.1887 247.966 35.1603 247.877 35.1158C246.73 34.4784 248.971 33.2517 249.537 33.098C251.158 32.6724 252.867 32.5592 254.544 32.7662C256.22 32.9733 257.825 33.4957 259.245 34.2968Z" fill="black"/>
<path d="M239.996 14.2105C258.388 14.2105 273.53 23.5069 275.476 35.4531C275.623 34.5837 275.699 33.7062 275.702 32.8274C275.702 19.6472 259.717 8.96103 239.996 8.96103C220.275 8.96103 204.287 19.6472 204.287 32.8274C204.292 33.7062 204.367 34.5836 204.514 35.4531C206.47 23.5069 221.603 14.2105 239.996 14.2105Z" fill="#F2D2AB"/>
<path d="M205.496 112.367C205.496 112.367 207.404 118.161 202.156 133.889C197.92 146.584 194.93 160.344 193.932 165.186C193.932 165.779 193.911 166.37 193.89 166.959L205.973 165.345L214.559 167.002C214.559 167.002 215.992 140.927 214.559 127.682C213.126 114.436 205.496 112.367 205.496 112.367ZM215.824 105.034C215.558 105.393 215.142 105.649 214.664 105.748C213.809 105.816 213.322 104.964 213.068 104.265C211.573 100.165 208.534 91.3279 206.829 87.294L206.803 87.244C205.432 87.7146 203.813 88.2761 202.124 88.9116C202.465 89.9345 203.672 92.2692 203.916 92.8029C207.15 99.9171 211.088 106.775 215.685 113.301L223.701 99.5088C224.878 97.6076 225.643 95.5349 225.956 93.394C222.878 96.5941 218.901 101.834 215.824 105.034ZM191.677 101.247C193.605 102.093 195.406 103.142 197.038 104.371C199.868 107.101 201.899 110.381 202.961 113.934C200.703 110.533 197.568 107.632 193.801 105.459C190.034 103.285 185.738 101.898 181.249 101.406C182.514 101.536 184.225 98.4934 185.75 98.423C187.221 98.3563 190.376 100.615 191.677 101.247ZM189.968 159.078C189.596 158.888 189.177 158.778 188.746 158.758C188.314 158.738 187.884 158.808 187.49 158.964L192.83 136.009C193.709 132.225 194.588 128.441 195.468 124.658C195.895 122.834 196.34 115.663 198.653 115.274C199.529 118.341 198.226 122.871 197.771 126.058C197.222 129.798 196.506 133.517 195.686 137.219C195.257 139.174 189.4 158.834 189.972 159.078H189.968ZM178.492 111.564C172.981 126.144 169.487 141.479 160.86 154.872C160.371 155.632 159.894 156.659 160.588 157.281C160.816 157.461 161.082 157.599 161.372 157.687C164.503 158.825 167.817 159.538 171.198 159.799C171.616 159.865 172.047 159.82 172.434 159.67C172.658 159.521 172.846 159.335 172.987 159.124C173.127 158.912 173.218 158.678 173.254 158.436C176.49 147.609 175.865 136.2 178.013 125.167C178.688 121.708 179.635 118.294 180.576 114.883C181.004 113.345 184.049 106.37 182.785 105.277C181.335 104.034 178.496 110.367 178.496 111.564H178.492ZM203.456 123.207C203.11 127.05 202.27 130.847 200.953 134.528L197.166 146.684C197.771 141.704 198.729 136.761 200.037 131.884C200.92 127.472 201.318 122.996 201.224 118.519C201.358 117.482 201.184 116.433 200.718 115.472C200.253 114.51 199.512 113.668 198.565 113.024C201.718 108.976 203.544 121.418 203.461 123.207H203.456ZM180.594 102.779C178.582 104.898 177.363 107.498 177.099 110.234C178.254 107.222 180.569 104.648 183.656 102.944C183.155 102.629 182.554 102.453 181.935 102.441C181.316 102.428 180.706 102.578 180.188 102.872L180.594 102.779ZM183.031 119.514C182.982 119.614 182.963 119.723 182.975 119.832C182.987 119.94 183.031 120.044 183.101 120.134C183.347 120.346 183.742 120.177 184.06 120.049C185.769 119.343 187.747 120.27 189.637 120.462C189.869 120.503 190.111 120.48 190.327 120.396C190.55 120.255 190.703 120.045 190.754 119.81C190.977 118.902 191.028 117.968 190.906 117.045C190.799 114.706 191.117 112.367 191.848 110.113C192.135 109.469 192.237 108.773 192.147 108.086C191.86 107.335 191.317 106.677 190.59 106.2C186.623 103.011 186.745 106.826 185.784 110.052C184.845 113.2 183.928 116.354 183.031 119.514ZM297.474 111.948C296.845 123.62 295.212 135.235 292.591 146.697C291.548 145.53 290.243 144.56 288.755 143.843C287.267 143.127 285.627 142.68 283.934 142.53C282.625 142.418 280.909 142.226 280.67 141.103C280.519 140.384 281.132 139.735 281.634 139.148C284.197 136.142 284.637 132.194 284.991 128.462C285.328 121.333 286.72 114.272 289.133 107.451C290.081 105.123 292.409 99.9461 295.515 102.844C297.894 105.066 297.623 109.172 297.478 111.948H297.474ZM320.546 118.467C323.481 130.055 321.827 142.355 321.001 154.17C320.991 156.516 320.505 158.843 319.565 161.043C318.395 160.814 317.274 160.425 316.244 159.892C315.216 159.216 314.446 158.288 314.032 157.228C313.619 156.168 313.581 155.024 313.924 153.946C314.633 151.364 315.025 148.725 315.093 146.072C315.319 139.554 315.381 133.033 315.279 126.51C315.436 121.663 314.796 116.82 313.378 112.13C312.613 109.924 311.454 107.836 309.943 105.942C308.63 104.321 305.5 102.752 304.759 101.088C312.713 103.502 318.807 111.611 320.546 118.467ZM302.912 114.499C302.89 114.68 302.91 114.862 302.972 115.036C303.033 115.209 303.134 115.37 303.268 115.509C303.542 115.682 303.883 115.754 304.217 115.709C305.158 115.674 306.051 115.336 306.721 114.762C307.392 114.188 307.794 113.418 307.848 112.602C307.734 111.725 307.391 110.883 306.844 110.139C305.412 107.769 304.209 105.299 303.249 102.755C301.852 99.0493 300.158 101.362 300.962 104.086C302.057 107.483 302.709 110.976 302.907 114.499H302.912Z" fill="#4BA376"/>
<path d="M358.166 148.17C358.166 148.17 352.442 123.957 350.295 119.61C349.169 117.333 342.548 114.551 336.495 112.411C335.996 113.916 335.759 115.478 335.792 117.044C335.858 120.631 336.958 124.142 337.343 127.713C337.645 132.564 337.28 137.429 336.256 142.205C331.762 168.778 326.669 195.27 320.977 221.68C319.939 225.485 319.524 229.399 319.745 233.305C319.871 235.26 320.474 237.169 321.513 238.907C322.553 240.644 324.005 242.171 325.775 243.385C325.89 243.456 326.027 243.498 326.144 243.571C326.6 243.551 327.038 243.406 327.394 243.158C330.971 240.052 363.177 199.698 363.177 199.698L358.166 148.17Z" fill="#3B3B3B"/>
<path d="M337.543 150.043C335.969 150.224 334.47 150.737 333.178 151.537C332.547 151.953 332.108 152.551 331.94 153.223C331.772 153.895 331.886 154.597 332.261 155.202C334.323 155.363 336.4 155.118 338.338 154.485L352.232 150.938C353.476 150.694 354.653 150.241 355.697 149.606C361.195 145.763 351.794 147.382 350.021 147.718L337.543 150.043Z" fill="black"/>
<path d="M356.344 169.346C356.671 170.009 357.162 170.775 357.991 170.806C358.422 170.785 358.837 170.656 359.187 170.435C360.853 169.582 362.52 168.728 364.187 167.875C364.947 167.537 365.629 167.081 366.197 166.527C367.677 164.889 366.838 162.518 365.926 160.598L359.435 146.773C359.415 146.64 359.365 146.512 359.288 146.396C359.211 146.28 359.108 146.179 358.985 146.098C358.862 146.017 358.722 145.958 358.572 145.925C358.423 145.891 358.267 145.884 358.115 145.904C350.212 145.948 346.564 145.696 349.319 153.062C351.384 158.574 353.725 164.002 356.344 169.346Z" fill="#970000"/>
<path d="M285.792 105.881C285.596 105.718 285.282 105.764 285.006 105.77C282.229 105.809 281.501 102.34 279.09 104.751C277.75 106.091 277.765 111.386 277.244 113.215C275.585 119.036 273.158 124.661 271.063 130.368C270.708 131.112 270.588 131.923 270.713 132.72C270.994 133.478 271.499 134.16 272.176 134.699C273.78 136.213 275.869 137.869 278.178 137.408C282.128 127.393 284.734 117.016 285.944 106.483C285.972 106.38 285.972 106.272 285.946 106.168C285.92 106.063 285.867 105.966 285.792 105.881ZM273.167 141.964C269.736 142.492 273.825 159.038 274.267 161.606C274.296 162.224 274.56 162.816 275.016 163.29C275.28 163.446 275.579 163.551 275.893 163.598C276.208 163.644 276.53 163.632 276.838 163.562C277.147 163.492 277.434 163.365 277.682 163.19C277.929 163.016 278.13 162.797 278.272 162.549C278.786 161.51 278.913 160.357 278.635 159.253C278.312 156.899 276.546 141.444 273.167 141.964Z" fill="#3B3B3B"/>
<path d="M259.962 255.699C259.492 255.699 259.033 255.819 258.642 256.046C258.251 256.272 257.946 256.594 257.766 256.971C257.586 257.348 257.539 257.763 257.631 258.163C257.722 258.563 257.948 258.93 258.281 259.219C258.613 259.507 259.036 259.704 259.497 259.783C259.958 259.863 260.436 259.823 260.871 259.667C261.305 259.511 261.676 259.247 261.938 258.908C262.199 258.569 262.339 258.171 262.34 257.763C262.34 257.216 262.089 256.691 261.643 256.304C261.198 255.917 260.593 255.699 259.962 255.699ZM259.17 233.007C259.17 232.599 259.03 232.2 258.769 231.86C258.507 231.521 258.136 231.256 257.701 231.1C257.266 230.944 256.788 230.903 256.326 230.982C255.865 231.062 255.441 231.259 255.108 231.547C254.775 231.836 254.549 232.204 254.457 232.604C254.365 233.005 254.412 233.42 254.592 233.797C254.772 234.174 255.077 234.496 255.469 234.723C255.86 234.95 256.32 235.071 256.791 235.071C257.422 235.071 258.027 234.854 258.473 234.467C258.919 234.079 259.17 233.554 259.17 233.007ZM255.998 208.253C255.998 207.845 255.859 207.446 255.597 207.107C255.336 206.768 254.965 206.504 254.531 206.348C254.096 206.191 253.618 206.151 253.157 206.23C252.696 206.31 252.272 206.506 251.94 206.795C251.607 207.083 251.381 207.451 251.289 207.851C251.197 208.251 251.245 208.665 251.424 209.042C251.604 209.419 251.909 209.741 252.3 209.968C252.691 210.194 253.151 210.315 253.621 210.315C254.251 210.315 254.856 210.098 255.302 209.711C255.748 209.324 255.998 208.8 255.998 208.253ZM257.98 136.053C258.45 136.053 258.91 135.932 259.301 135.706C259.692 135.479 259.996 135.157 260.176 134.781C260.356 134.404 260.404 133.989 260.312 133.589C260.22 133.189 259.994 132.822 259.662 132.533C259.33 132.245 258.906 132.048 258.445 131.968C257.984 131.889 257.506 131.929 257.072 132.085C256.638 132.241 256.266 132.505 256.005 132.844C255.743 133.183 255.603 133.581 255.603 133.989C255.603 134.26 255.664 134.528 255.783 134.779C255.903 135.029 256.078 135.257 256.298 135.449C256.519 135.64 256.781 135.792 257.07 135.896C257.359 136 257.668 136.053 257.98 136.053ZM257.98 111.297C258.45 111.297 258.91 111.177 259.301 110.95C259.692 110.723 259.997 110.401 260.177 110.024C260.356 109.648 260.404 109.233 260.312 108.833C260.22 108.433 259.994 108.065 259.661 107.777C259.329 107.488 258.905 107.292 258.444 107.212C257.983 107.133 257.505 107.174 257.07 107.33C256.636 107.486 256.265 107.75 256.004 108.089C255.742 108.428 255.603 108.827 255.603 109.235C255.603 109.782 255.853 110.307 256.299 110.693C256.745 111.08 257.35 111.297 257.98 111.297Z" fill="#A7D2BC"/>
<path d="M300.199 478.045C299.663 476.365 298.459 474.903 296.8 473.92C295.141 472.936 293.133 472.494 291.134 472.672C283.5 472.877 277.06 479.5 277.06 479.5C277.06 479.5 290.258 483.532 300.199 478.045Z" fill="white"/>
<path d="M278.579 476.555L279.666 475.557C282.531 472.937 286.204 471.088 290.248 470.231C286.442 469.259 282.386 469.313 278.618 470.387L277.432 470.728L278.329 469.974C280.93 467.788 284.252 466.359 287.832 465.888C284.745 464.809 281.316 464.723 278.163 465.647L276.567 466.127L277.889 465.217C280.265 463.587 282.788 462.126 285.433 460.846C282.722 460.159 279.829 460.247 277.18 461.096L275.819 461.537L276.887 460.681C279.033 458.96 281.533 457.605 284.256 456.686C281.852 456.119 279.304 456.211 276.962 456.949L276.749 456.493C278.303 456.014 279.646 455.128 280.593 453.956L280.662 453.843C278.526 451.62 276.432 449.324 274.452 446.997C274.128 446.68 273.926 446.284 273.874 445.863C273.874 445.684 273.921 445.508 274.011 445.348C274.101 445.187 274.231 445.047 274.393 444.936C274.609 444.784 274.86 444.673 275.129 444.612C275.398 444.551 275.68 444.541 275.954 444.582C276.797 444.794 277.53 445.252 278.028 445.879C279.605 447.538 280.753 449.472 281.394 451.549L282.599 446.374L282.791 446.344C283.436 446.252 284.097 446.32 284.699 446.543L284.874 446.609V446.778C284.801 449.224 283.719 451.567 281.826 453.38V453.399H281.8C281.636 453.556 281.465 453.706 281.29 453.855C281.23 453.969 281.17 454.082 281.099 454.194C280.611 454.918 279.922 455.526 279.096 455.963C281.165 455.674 283.285 455.835 285.265 456.432L286.044 456.667L285.262 456.903C282.738 457.66 280.389 458.799 278.323 460.268C280.946 459.682 283.71 459.782 286.268 460.553L286.875 460.738L286.311 461.003C283.921 462.126 281.629 463.4 279.453 464.813C282.682 464.172 286.067 464.522 289.032 465.803L289.929 466.194L288.93 466.273C285.528 466.545 282.301 467.708 279.679 469.609C283.568 468.731 287.671 468.885 291.459 470.051L292.454 470.357L291.418 470.53C287.653 471.158 284.155 472.665 281.302 474.888C285.085 473.428 289.085 472.435 293.185 471.938L293.264 472.431C288.662 472.987 284.192 474.175 280.021 475.951L278.579 476.555ZM275.599 445.055C275.288 445.057 274.987 445.151 274.745 445.322C274.65 445.385 274.572 445.466 274.517 445.558C274.462 445.651 274.432 445.753 274.429 445.857C274.485 446.174 274.649 446.469 274.899 446.706C276.821 448.955 278.829 451.183 280.894 453.33C280.976 453.126 281.04 452.919 281.108 452.711C280.569 450.32 279.357 448.081 277.579 446.194C277.158 445.665 276.543 445.273 275.834 445.082C275.757 445.066 275.679 445.055 275.599 445.051V445.055ZM281.683 452.721V452.741C283.253 451.105 284.162 449.067 284.269 446.939C283.881 446.822 283.468 446.778 283.058 446.811L281.834 452.079C281.787 452.283 281.738 452.5 281.672 452.717L281.683 452.721Z" fill="white"/>
<path d="M292.337 472.529C288.691 472.791 285.144 473.69 281.909 475.171L281.71 474.712C284.594 473.392 287.725 472.526 290.957 472.156C288.032 471.458 284.918 471.662 282.148 472.735L281.386 473.033L281.879 472.34C283.574 469.839 286.207 467.918 289.338 466.898C286.696 466.382 283.927 466.776 281.614 467.997L280.922 468.367L281.309 467.644C282.421 465.411 284.478 463.632 287.057 462.675C284.937 462.39 282.792 462.274 280.649 462.328L280.145 462.341L280.446 461.921C281.601 460.242 283.377 458.953 285.485 458.261C283.426 457.88 281.296 457.904 279.25 458.333L278.622 458.468L279.011 457.929C279.921 456.625 281.232 455.567 282.798 454.874C282.003 454.842 281.237 454.61 280.591 454.207C280.489 454.14 280.393 454.069 280.296 453.995C280.106 453.943 279.918 453.886 279.73 453.821H279.711V453.803C277.396 452.922 275.507 451.368 274.371 449.409L274.282 449.267L274.363 449.133C274.614 448.707 275.014 448.36 275.505 448.142L275.646 448.084L279.064 452.039C278.427 449.972 278.196 447.827 278.38 445.694C278.374 444.979 278.618 444.28 279.079 443.687C279.221 443.538 279.407 443.424 279.618 443.359C279.829 443.294 280.056 443.279 280.275 443.317C280.452 443.353 280.616 443.425 280.757 443.525C280.897 443.625 281.009 443.751 281.085 443.895C281.264 444.284 281.332 444.705 281.283 445.121C281.172 447.982 280.978 450.866 280.706 453.704L280.807 453.771C281.944 454.365 283.301 454.56 284.598 454.316L284.684 454.805C282.699 455.223 280.96 456.257 279.792 457.711C282.065 457.335 284.407 457.433 286.627 457.996L287.757 458.279L286.644 458.481C284.386 458.946 282.416 460.138 281.134 461.817C283.528 461.787 285.92 461.966 288.274 462.35L289.598 462.569L288.317 462.842C286.997 463.164 285.766 463.717 284.701 464.467C283.636 465.217 282.759 466.147 282.123 467.202C283.392 466.642 284.776 466.305 286.195 466.21C287.614 466.114 289.042 466.262 290.395 466.646L291.363 466.913L290.416 467.127C287.276 467.905 284.558 469.628 282.751 471.988C285.855 470.991 289.273 471.011 292.362 472.043L293.578 472.44L292.337 472.529ZM279.393 444.058C279.013 444.57 278.815 445.167 278.823 445.776C278.623 448.191 278.964 450.618 279.829 452.921C279.972 453.074 280.119 453.226 280.275 453.367C280.533 450.625 280.717 447.834 280.826 445.07C280.867 444.757 280.825 444.44 280.702 444.143C280.657 444.06 280.59 443.987 280.507 443.931C280.424 443.874 280.327 443.834 280.224 443.815C280.103 443.794 279.979 443.795 279.859 443.819C279.739 443.843 279.627 443.889 279.53 443.954C279.48 443.984 279.434 444.019 279.393 444.058ZM279.026 452.693L275.552 448.668C275.257 448.826 275.009 449.041 274.828 449.298C275.858 450.99 277.479 452.357 279.459 453.2V453.182C279.303 453.017 279.16 452.852 279.026 452.693Z" fill="white"/>
<path d="M228.274 22.8732C227.915 24.4611 227.455 26.0306 226.896 27.5742C228.99 25.8279 231.343 24.3322 233.893 23.1271C234.321 24.5298 231.384 25.6916 232.197 26.959C233.639 25.7081 235.304 24.6664 237.127 23.8738C237.127 24.0637 237.171 24.2516 237.258 24.4259C237.345 24.6003 237.472 24.7573 237.631 24.8874C238.452 24.0446 239.556 23.4448 240.788 23.1715C240.626 23.8411 240.464 24.51 240.303 25.1783C241.603 23.6222 243.414 22.4419 245.498 21.7911C245.834 21.7186 246.143 21.5739 246.397 21.3704C246.58 21.1429 246.66 20.8645 246.62 20.589C246.581 20.3136 246.425 20.0605 246.184 19.8788C245.679 19.5321 245.073 19.3128 244.434 19.2451C239.38 18.0293 233.977 18.5732 229.378 20.7608C227.265 21.7901 225.662 23.4582 224.876 25.447C225.862 23.9905 226.313 23.3661 228.274 22.8732Z" fill="#494949"/>
</g>
<defs>
<filter id="filter0_f" x="0" y="361" width="423" height="200" filterUnits="userSpaceOnUse" color-interpolation-filters="sRGB">
<feFlood flood-opacity="0" result="BackgroundImageFix"/>
<feBlend mode="normal" in="SourceGraphic" in2="BackgroundImageFix" result="shape"/>
<feGaussianBlur stdDeviation="30" result="effect1_foregroundBlur"/>
</filter>
<linearGradient id="paint0_linear" x1="190.795" y1="321.703" x2="190.795" y2="224.432" gradientUnits="userSpaceOnUse">
<stop offset="0.021" stop-color="#2C2829"/>
<stop offset="0.078" stop-color="#545152"/>
<stop offset="0.144" stop-color="#7C7A7B"/>
<stop offset="0.204" stop-color="#999999"/>
<stop offset="0.255" stop-color="#ABABAB"/>
<stop offset="0.291" stop-color="#B2B2B2"/>
<stop offset="0.834" stop-color="#6C696A"/>
<stop offset="0.841" stop-color="#585556"/>
<stop offset="0.853" stop-color="#3D3B3B"/>
<stop offset="0.868" stop-color="#262525"/>
<stop offset="0.884" stop-color="#151414"/>
<stop offset="0.904" stop-color="#080808"/>
<stop offset="0.931" stop-color="#010101"/>
<stop offset="1"/>
</linearGradient>
<clipPath id="clip0">
<rect x="124" width="243" height="495" fill="white"/>
</clipPath>
</defs>
</svg>
