<svg width="32" height="32" viewBox="0 0 32 32" fill="none" xmlns="http://www.w3.org/2000/svg">
<path d="M16 2C23.7312 2 30 8.26875 30 16C30 23.7313 23.7312 30 16 30C8.26875 30 2 23.7313 2 16C2 8.26875 8.26875 2 16 2ZM11.1656 16.2031L18.8531 21.7656C19.0187 21.8844 19.25 21.7656 19.25 21.5625V20.0969C19.25 19.7781 19.0969 19.475 18.8375 19.2875L14.2938 16L18.8375 12.7125C19.0969 12.525 19.25 12.225 19.25 11.9031V10.4375C19.25 10.2344 19.0187 10.1156 18.8531 10.2344L11.1656 15.7969C11.0281 15.8969 11.0281 16.1031 11.1656 16.2031Z" fill="white"/>
</svg>
