<svg width="32" height="32" viewBox="0 0 32 32" fill="none" xmlns="http://www.w3.org/2000/svg">
<path d="M16 2C8.26875 2 2 8.26875 2 16C2 23.7313 8.26875 30 16 30C23.7313 30 30 23.7313 30 16C30 8.26875 23.7313 2 16 2ZM20.8344 16.2031L13.1469 21.7656C12.9813 21.8844 12.75 21.7656 12.75 21.5625V20.0969C12.75 19.7781 12.9031 19.475 13.1625 19.2875L17.7062 16L13.1625 12.7125C12.9031 12.525 12.75 12.225 12.75 11.9031V10.4375C12.75 10.2344 12.9813 10.1156 13.1469 10.2344L20.8344 15.7969C20.9719 15.8969 20.9719 16.1031 20.8344 16.2031Z" fill="white"/>
</svg>
